<?xml version="1.0" encoding="UTF-8" standalone="no"?>
<!-- Created with Inkscape (http://www.inkscape.org/) -->

<svg
   width="320"
   height="320"
   viewBox="0 0 84.666667 84.666667"
   version="1.1"
   id="svg1"
   sodipodi:docname="GymTracer_logo_unified.svg"
   inkscape:version="1.4.3 (0d15f75, 2025-12-25)"
   xmlns:inkscape="http://www.inkscape.org/namespaces/inkscape"
   xmlns:sodipodi="http://sodipodi.sourceforge.net/DTD/sodipodi-0.dtd"
   xmlns="http://www.w3.org/2000/svg"
   xmlns:svg="http://www.w3.org/2000/svg">
  <sodipodi:namedview
     id="namedview1"
     pagecolor="#ffffff"
     bordercolor="#000000"
     borderopacity="0.25"
     inkscape:showpageshadow="2"
     inkscape:pageopacity="0.0"
     inkscape:pagecheckerboard="0"
     inkscape:deskcolor="#d1d1d1"
     inkscape:document-units="mm"
     inkscape:zoom="2.0792507"
     inkscape:cx="68.293832"
     inkscape:cy="30.539847"
     inkscape:window-width="2560"
     inkscape:window-height="1369"
     inkscape:window-x="-8"
     inkscape:window-y="-8"
     inkscape:window-maximized="1"
     inkscape:current-layer="layer1" />
  <defs
     id="defs1">
    <inkscape:path-effect
       effect="offset"
       id="path-effect6"
       is_visible="true"
       lpeversion="1.3"
       linejoin_type="miter"
       unit="mm"
       offset="0"
       miter_limit="1"
       attempt_force_join="true"
       update_on_knot_move="true" />
    <inkscape:path-effect
       effect="fillet_chamfer"
       id="path-effect5"
       is_visible="true"
       lpeversion="1"
       nodesatellites_param="F,0,0,1,0,0,0,1 @ F,0,0,1,0,0.92127544,0,1 @ F,0,0,1,0,1.4287413,0,1 @ F,0,0,1,0,0.53908511,0,1 @ F,0,0,1,0,1.7782274,0,1 @ F,0,0,1,0,0.28106296,0,1 @ F,0,0,1,0,0.75582317,0,1 @ F,0,0,1,0,0,0,1"
       radius="0"
       unit="px"
       method="auto"
       mode="F"
       chamfer_steps="1"
       flexible="false"
       use_knot_distance="true"
       apply_no_radius="true"
       apply_with_radius="true"
       only_selected="false"
       hide_knots="false" />
    <inkscape:path-effect
       effect="fillet_chamfer"
       id="path-effect4"
       is_visible="true"
       lpeversion="1"
       nodesatellites_param="F,0,0,1,0,0,0,1 @ F,0,0,1,0,0,0,1 @ F,0,0,1,0,0,0,1 @ F,0,0,1,0,0,0,1 @ F,0,0,1,0,0,0,1 @ F,0,0,1,0,0,0,1 @ F,0,0,1,0,0,0,1 @ F,0,0,1,0,0,0,1"
       radius="0"
       unit="px"
       method="auto"
       mode="F"
       chamfer_steps="1"
       flexible="false"
       use_knot_distance="true"
       apply_no_radius="true"
       apply_with_radius="true"
       only_selected="false"
       hide_knots="false" />
    <inkscape:path-effect
       effect="fillet_chamfer"
       id="path-effect3"
       is_visible="true"
       lpeversion="1"
       nodesatellites_param="F,0,0,1,0,0,0,1 @ F,0,0,1,0,0,0,1 @ F,0,0,1,0,0,0,1 @ F,0,0,1,0,0,0,1 @ F,0,0,1,0,0,0,1 @ F,0,0,1,0,0,0,1 @ F,0,0,1,0,0,0,1 @ F,0,0,1,0,0,0,1"
       radius="0"
       unit="px"
       method="auto"
       mode="F"
       chamfer_steps="1"
       flexible="false"
       use_knot_distance="true"
       apply_no_radius="true"
       apply_with_radius="true"
       only_selected="false"
       hide_knots="false" />
    <inkscape:path-effect
       effect="fillet_chamfer"
       id="path-effect2"
       is_visible="true"
       lpeversion="1"
       nodesatellites_param="F,0,0,1,0,0,0,1 @ F,0,0,1,0,0,0,1 @ F,0,0,1,0,1.0091875,0,1 @ F,0,0,1,0,0,0,1 @ F,0,0,1,0,0,0,1 @ F,0,0,1,0,0,0,1 @ F,0,0,1,0,0,0,1 @ F,0,0,1,0,0,0,1"
       radius="0"
       unit="px"
       method="auto"
       mode="F"
       chamfer_steps="1"
       flexible="false"
       use_knot_distance="true"
       apply_no_radius="true"
       apply_with_radius="true"
       only_selected="false"
       hide_knots="false" />
  </defs>
  <g
     inkscape:label="Layer 1"
     inkscape:groupmode="layer"
     id="layer1"
     transform="translate(-41.648361,-44.964268)">
    <path
       id="path11"
       style="fill:#ffffff;stroke-width:1.28035;stroke-miterlimit:3.2"
       sodipodi:type="inkscape:offset"
       inkscape:radius="2.3954394"
       inkscape:original="M 80.273438 46.839844 C 79.699196 46.829844 79.047528 47.262667 78.892578 47.908203 L 74.617188 65.71875 L 72.619141 62.244141 C 71.942165 61.067389 70.153377 61.034472 69.433594 62.185547 L 67.1875 65.777344 C 67.06397 65.974891 66.852036 66.093998 66.619141 66.095703 L 44.517578 66.257812 A 1 1 0 0 0 43.523438 67.265625 A 1 1 0 0 0 44.53125 68.257812 L 66.632812 68.095703 C 67.547393 68.089003 68.397942 67.613289 68.882812 66.837891 L 71.001953 63.447266 L 73.867188 68.427734 C 74.118669 68.864861 74.64899 69.087585 75.09375 69.023438 C 75.53851 68.959288 75.983858 68.595845 76.101562 68.105469 L 80.199219 51.033203 L 87.158203 85.220703 C 87.255133 85.696901 87.748546 86.063901 88.179688 86.072266 C 88.610829 86.080666 89.11717 85.734108 89.232422 85.261719 L 93.458984 67.923828 L 122.91406 68.087891 A 1 1 0 0 0 123.91992 67.09375 A 1 1 0 0 0 122.92383 66.087891 L 93.435547 65.923828 C 92.534703 65.918728 91.738777 66.540795 91.525391 67.416016 L 88.28125 80.716797 L 81.615234 47.955078 C 81.482833 47.304542 80.847679 46.849835 80.273438 46.839844 z M 106.31445 49.951172 C 105.03269 49.951172 104.00195 50.983869 104.00195 52.265625 L 104.00195 65.091797 L 110.61914 65.128906 L 110.61914 52.265625 C 110.61914 50.983869 109.58645 49.951172 108.30469 49.951172 L 106.31445 49.951172 z M 58.4375 50.121094 C 57.155745 50.121094 56.123047 51.153792 56.123047 52.435547 L 56.123047 65.283203 L 62.740234 65.234375 L 62.740234 52.435547 C 62.740234 51.153792 61.707536 50.121094 60.425781 50.121094 L 58.4375 50.121094 z M 114.74219 53.603516 C 113.72352 53.603516 112.9043 54.424688 112.9043 55.443359 L 112.9043 65.140625 L 119.52148 65.177734 L 119.52148 55.443359 C 119.52148 54.424688 118.70031 53.603516 117.68164 53.603516 L 114.74219 53.603516 z M 49.058594 53.773438 C 48.039922 53.773438 47.220703 54.59461 47.220703 55.613281 L 47.220703 65.349609 L 53.837891 65.300781 L 53.837891 55.613281 C 53.837891 54.59461 53.016719 53.773438 51.998047 53.773438 L 49.058594 53.773438 z M 119.52148 68.986328 L 112.9043 69 L 112.9043 78.734375 C 112.9043 79.753047 113.72352 80.572266 114.74219 80.572266 L 117.68164 80.572266 C 118.70031 80.572266 119.52148 79.753047 119.52148 78.734375 L 119.52148 68.986328 z M 110.61914 69.005859 L 104.00195 69.019531 L 104.00195 81.572266 C 104.00195 82.854021 105.03269 83.884766 106.31445 83.884766 L 108.30469 83.884766 C 109.58645 83.884766 110.61914 82.854021 110.61914 81.572266 L 110.61914 69.005859 z M 62.740234 69.109375 L 56.123047 69.123047 L 56.123047 81.742188 C 56.123047 83.023943 57.155745 84.054687 58.4375 84.054688 L 60.425781 84.054688 C 61.707536 84.054688 62.740234 83.023942 62.740234 81.742188 L 62.740234 69.109375 z M 53.837891 69.128906 L 47.220703 69.142578 L 47.220703 78.904297 C 47.220703 79.922968 48.039922 80.742188 49.058594 80.742188 L 51.998047 80.742188 C 53.016719 80.742188 53.837891 79.922968 53.837891 78.904297 L 53.837891 69.128906 z "
       d="m 80.314453,44.445312 c -1.808915,-0.0315 -3.297945,1.012857 -3.751953,2.904297 l -3.015625,12.5625 c -1.892662,-1.439301 -4.774839,-1.186501 -6.144531,1.003907 l -1.746094,2.792968 -0.521484,0.0039 V 52.435547 c 0,-2.568411 -2.140574,-4.708985 -4.708985,-4.708985 H 58.4375 c -2.365232,0 -4.289668,1.839665 -4.591797,4.132813 -0.566739,-0.285675 -1.180116,-0.480469 -1.847656,-0.480469 h -2.939453 c -2.306014,0 -4.232422,1.931423 -4.232422,4.234375 v 8.248047 L 44.5,63.863281 c -1.778542,0.01272 -3.385022,1.643109 -3.371094,3.421875 0.01384,1.777862 1.644014,3.381131 3.421875,3.367188 l 0.275391,-0.002 v 8.253906 c 0,2.302952 1.929469,4.232422 4.232422,4.232422 h 2.939453 c 0.694022,0 1.326196,-0.215749 1.910156,-0.523438 0.430289,2.14878 2.270636,3.835936 4.529297,3.835938 h 1.988281 c 2.565979,0 4.708985,-2.138621 4.708985,-4.707032 V 70.501953 l 1.515625,-0.01172 c 1.734284,-0.0127 3.344637,-0.913104 4.263671,-2.382812 l 0.002,-0.0039 0.875,1.519531 c 0.80198,1.394011 2.158091,1.985871 3.644531,1.771484 1.486425,-0.214394 2.621022,-1.167851 2.996094,-2.730469 l 1.576171,-6.5625 4.802735,23.597657 c 0.365863,1.797412 1.567954,2.733541 3.322265,2.767578 1.750592,0.03411 2.993497,-0.856887 3.427735,-2.636719 a 2.3956789,2.3956789 0 0 0 0,-0.002 l 3.777344,-15.498047 6.269529,0.03516 v 11.207032 c 0,2.565971 2.14106,4.707031 4.70703,4.707031 h 1.99024 c 2.25866,0 4.09901,-1.687162 4.52929,-3.835938 0.58336,0.307523 1.21476,0.523438 1.90821,0.523438 h 2.93945 c 2.30295,0 4.23438,-1.926412 4.23438,-4.232422 v -8.257813 l 0.98437,0.0059 c 1.77786,0.01045 3.40368,-1.597143 3.41406,-3.375 0.0104,-1.778759 -1.59842,-3.404786 -3.37695,-3.414063 h -0.004 l -1.01757,-0.0059 v -8.244141 c 0,-2.30601 -1.92837,-4.234375 -4.23438,-4.234375 h -2.93945 c -0.66706,0 -1.27951,0.196842 -1.84571,0.482422 -0.30126,-2.294049 -2.2259,-4.134765 -4.59179,-4.134765 h -1.99024 c -2.56841,0 -4.70703,2.143013 -4.70703,4.708984 v 11.308594 l -8.158201,-0.04492 c -2.01154,-0.01139 -3.77574,1.36513 -4.251953,3.318359 l -0.705079,2.890625 -4.529296,-22.261719 c -0.387489,-1.903876 -1.840953,-2.999802 -3.648438,-3.03125 z"
       transform="translate(0.25997933,20.841981)" />
    <path
       id="rect5"
       style="fill:#000000;stroke-width:1.28035;stroke-miterlimit:3.2"
       d="m 115.00242,74.446438 c -1.01867,0 -1.83865,0.819976 -1.83865,1.838647 v 9.698633 l 6.61717,0.03721 v -9.73584 c 0,-1.018671 -0.81998,-1.838647 -1.83865,-1.838647 z m 4.77852,15.382007 -6.61717,0.01447 v 9.733256 c 0,1.018669 0.81998,1.838649 1.83865,1.838649 h 2.93987 c 1.01867,0 1.83865,-0.81998 1.83865,-1.838649 z" />
    <path
       id="rect6"
       style="fill:#000000;stroke-width:1.43621;stroke-miterlimit:3.2"
       d="m 106.57503,70.793948 c -1.28176,0 -2.31407,1.031798 -2.31407,2.313554 v 12.825573 l 6.61716,0.03772 V 73.107502 c 0,-1.281756 -1.03179,-2.313554 -2.31355,-2.313554 z m 4.30309,19.054134 -6.61716,0.01395 v 12.551688 c 0,1.28175 1.03231,2.31355 2.31407,2.31355 h 1.98954 c 1.28176,0 2.31355,-1.0318 2.31355,-2.31355 z" />
    <path
       id="rect1"
       style="fill:#000000;stroke-width:1.28035;stroke-miterlimit:3.2"
       d="m 49.319091,74.615937 c -1.018672,0 -1.838648,0.819976 -1.838648,1.838647 v 9.736874 l 6.616651,-0.04909 v -9.687781 c 0,-1.018671 -0.819976,-1.838647 -1.838648,-1.838647 z m 4.778003,15.355135 -6.616651,0.01447 v 9.760128 c 0,1.01867 0.819976,1.83865 1.838648,1.83865 h 2.939355 c 1.018672,0 1.838648,-0.81998 1.838648,-1.83865 z" />
    <path
       id="rect2"
       style="fill:#000000;stroke-width:1.43621;stroke-miterlimit:3.2"
       d="m 58.696813,70.963963 c -1.281755,0 -2.314071,1.031799 -2.314071,2.313554 v 12.847795 l 6.617167,-0.04961 V 73.277517 c 0,-1.281755 -1.031798,-2.313554 -2.313553,-2.313554 z m 4.303096,18.987989 -6.617167,0.01395 v 12.617838 c 0,1.28175 1.032316,2.31355 2.314071,2.31355 h 1.989543 c 1.281755,0 2.313553,-1.0318 2.313553,-2.31355 z" />
    <path
       style="fill:none;stroke:#000000;stroke-width:2;stroke-linecap:round;stroke-linejoin:miter;stroke-miterlimit:3.2;stroke-dasharray:none"
       d="m 44.784239,88.100257 22.101562,-0.162968 c 0.573738,-0.0042 1.105503,-0.301448 1.409704,-0.787921 l 2.245904,-3.591619 c 0.343123,-0.548717 1.147249,-0.533929 1.469964,0.02703 l 2.983101,5.185395 c 0.09677,0.168206 0.349353,0.131777 0.394646,-0.05692 l 4.735895,-19.72986 c 0.09847,-0.410235 0.685555,-0.400019 0.769695,0.01339 l 7.503362,36.866946 c 0.01339,0.0658 0.10673,0.0676 0.12263,0.002 l 4.235236,-17.371043 c 0.104954,-0.430476 0.491765,-0.732558 0.934844,-0.730071 l 29.488368,0.165517"
       id="path2"
       sodipodi:nodetypes="cccccccc" />
  </g>
</svg>
